<svg height="512" viewBox="0 0 64 64" width="512" xmlns="http://www.w3.org/2000/svg" xmlns:xlink="http://www.w3.org/1999/xlink"><linearGradient id="New_Gradient_Swatch_3" gradientUnits="userSpaceOnUse" x1="15" x2="15" y1="65.52" y2="1.319"><stop offset="0" stop-color="#006df0"/><stop offset="1" stop-color="#00e7f0"/></linearGradient><linearGradient id="New_Gradient_Swatch_3-2" x1="19" x2="19" xlink:href="#New_Gradient_Swatch_3" y1="65.52" y2="1.319"/><linearGradient id="New_Gradient_Swatch_3-3" x1="23" x2="23" xlink:href="#New_Gradient_Swatch_3" y1="65.52" y2="1.319"/><linearGradient id="New_Gradient_Swatch_3-4" x1="32" x2="32" xlink:href="#New_Gradient_Swatch_3" y1="65.52" y2="1.319"/><g id="Design_webpage-2" data-name="Design webpage"><path d="m14 5h2v2h-2z" fill="url(#New_Gradient_Swatch_3)"/><path d="m18 5h2v2h-2z" fill="url(#New_Gradient_Swatch_3-2)"/><path d="m22 5h2v2h-2z" fill="url(#New_Gradient_Swatch_3-3)"/><path d="m57 6h-3v-1a3 3 0 0 0 -3-3h-38a3 3 0 0 0 -3 3v1h-3a5.006 5.006 0 0 0 -5 5v32a5.006 5.006 0 0 0 5 5h17v6h-10a4 4 0 0 0 0 8h36a4 4 0 0 0 0-8h-10v-6h17a5.006 5.006 0 0 0 5-5v-32a5.006 5.006 0 0 0 -5-5zm-9 14h-3a1 1 0 0 0 0 2h3v2h-3a1 1 0 0 0 0 2h3v2h-3a1 1 0 0 0 0 2h3v2h-3a1 1 0 0 0 0 2h3v2h-3a1 1 0 0 0 0 2h3v2h-8v-22h8zm2-3a1 1 0 0 0 -1-1h-10a1 1 0 0 0 -1 1v23h-2v-19a.992.992 0 0 0 -.1-.412c0-.011 0-.024-.008-.035l-3-6a1.042 1.042 0 0 0 -1.79 0l-3 6c0 .011 0 .024-.008.035a.992.992 0 0 0 -.094.412v19h-4.9l.84-9.243a1.993 1.993 0 0 0 1.06-1.757v-1a2 2 0 0 0 -1.176-1.818 4.951 4.951 0 0 0 1.176-3.182c0-2.31-1.844-7.717-2.055-8.327a1 1 0 0 0 -1.639-.393c-1.48 1.428-6.306 6.276-6.306 8.72a4.951 4.951 0 0 0 1.176 3.182 2 2 0 0 0 -1.176 1.818v1a1.993 1.993 0 0 0 1.065 1.757l.84 9.243h-4.905v-30h40v30h-2zm-20 23v-16.586l1 1v15.586zm2-17.414-1.783-1.786 1.783-3.564 1.783 3.564zm1 1.828 1-1v16.586h-1zm-16-1.414c0-.919 2.19-3.694 4.557-6.143a29.441 29.441 0 0 1 1.443 6.143 3 3 0 0 1 -6 0zm0 5h6v1h-6zm1.1 3h3.81l-.818 9h-2.179zm-8.1 9h-2v-28h2zm44-28h2v28h-2zm-42-7a1 1 0 0 1 1-1h38a1 1 0 0 1 1 1v3h-40zm40 53a2 2 0 0 1 -2 2h-36a2 2 0 0 1 0-4h36a2 2 0 0 1 2 2zm-14-4h-12v-6h12zm22-11a3 3 0 0 1 -3 3h-50a3 3 0 0 1 -3-3v-32a3 3 0 0 1 3-3h3v2h-3a1 1 0 0 0 -1 1v30a1 1 0 0 0 1 1h50a1 1 0 0 0 1-1v-30a1 1 0 0 0 -1-1h-3v-2h3a3 3 0 0 1 3 3z" fill="url(#New_Gradient_Swatch_3-4)"/></g></svg>