<svg height="512" viewBox="0 0 64 64" width="512" xmlns="http://www.w3.org/2000/svg" xmlns:xlink="http://www.w3.org/1999/xlink"><linearGradient id="New_Gradient_Swatch_3" gradientUnits="userSpaceOnUse" x1="24" x2="24" y1="69.298" y2="1.703"><stop offset="0" stop-color="#006df0"/><stop offset="1" stop-color="#00e7f0"/></linearGradient><linearGradient id="New_Gradient_Swatch_3-2" x1="9" x2="9" xlink:href="#New_Gradient_Swatch_3" y1="69.298" y2="1.703"/><linearGradient id="New_Gradient_Swatch_3-3" x1="14.5" x2="14.5" xlink:href="#New_Gradient_Swatch_3" y1="69.298" y2="1.703"/><linearGradient id="New_Gradient_Swatch_3-4" x1="25.5" x2="25.5" xlink:href="#New_Gradient_Swatch_3" y1="69.298" y2="1.703"/><linearGradient id="New_Gradient_Swatch_3-5" x1="20" x2="20" xlink:href="#New_Gradient_Swatch_3" y1="69.298" y2="1.703"/><linearGradient id="New_Gradient_Swatch_3-6" x1="15" x2="15" xlink:href="#New_Gradient_Swatch_3" y1="69.298" y2="1.703"/><linearGradient id="New_Gradient_Swatch_3-7" x1="21" x2="21" xlink:href="#New_Gradient_Swatch_3" y1="69.298" y2="1.703"/><linearGradient id="New_Gradient_Swatch_3-9" x1="36.5" x2="36.5" xlink:href="#New_Gradient_Swatch_3" y1="69.298" y2="1.703"/><linearGradient id="New_Gradient_Swatch_3-10" x1="16" x2="16" xlink:href="#New_Gradient_Swatch_3" y1="69.298" y2="1.703"/><linearGradient id="New_Gradient_Swatch_3-11" x1="25" x2="25" xlink:href="#New_Gradient_Swatch_3" y1="69.298" y2="1.703"/><linearGradient id="New_Gradient_Swatch_3-12" x1="35" x2="35" xlink:href="#New_Gradient_Swatch_3" y1="69.298" y2="1.703"/><linearGradient id="New_Gradient_Swatch_3-13" x1="30" x2="30" xlink:href="#New_Gradient_Swatch_3" y1="69.298" y2="1.703"/><linearGradient id="New_Gradient_Swatch_3-14" x1="7" x2="7" xlink:href="#New_Gradient_Swatch_3" y1="69.298" y2="1.703"/><linearGradient id="New_Gradient_Swatch_3-15" x1="11" x2="11" xlink:href="#New_Gradient_Swatch_3" y1="69.298" y2="1.703"/><linearGradient id="New_Gradient_Swatch_3-18" x1="57" x2="57" xlink:href="#New_Gradient_Swatch_3" y1="69.298" y2="1.703"/><linearGradient id="New_Gradient_Swatch_3-20" x1="53" x2="53" xlink:href="#New_Gradient_Swatch_3" y1="69.298" y2="1.703"/><linearGradient id="New_Gradient_Swatch_3-22" x1="49" x2="49" xlink:href="#New_Gradient_Swatch_3" y1="69.298" y2="1.703"/><linearGradient id="New_Gradient_Swatch_3-24" x1="45" x2="45" xlink:href="#New_Gradient_Swatch_3" y1="69.298" y2="1.703"/><linearGradient id="New_Gradient_Swatch_3-33" x1="39" x2="39" xlink:href="#New_Gradient_Swatch_3" y1="69.298" y2="1.703"/><path d="m43 28h-38a3 3 0 0 0 -3 3v28a3 3 0 0 0 3 3h38a3 3 0 0 0 3-3v-28a3 3 0 0 0 -3-3zm-38 2h38a1 1 0 0 1 1 1v3h-40v-3a1 1 0 0 1 1-1zm38 30h-38a1 1 0 0 1 -1-1v-23h40v23a1 1 0 0 1 -1 1z" fill="url(#New_Gradient_Swatch_3)"/><path d="m9 56a1 1 0 0 1 -1-1v-14a1 1 0 0 1 2 0v14a1 1 0 0 1 -1 1z" fill="url(#New_Gradient_Swatch_3-2)"/><path d="m16 45a1 1 0 0 1 -.554-.168l-3-2a1 1 0 0 1 0-1.664l3-2a1 1 0 1 1 1.11 1.664l-1.756 1.168 1.752 1.168a1 1 0 0 1 -.552 1.832z" fill="url(#New_Gradient_Swatch_3-3)"/><path d="m24 45a1 1 0 0 1 -.556-1.832l1.756-1.168-1.752-1.168a1 1 0 1 1 1.11-1.664l3 2a1 1 0 0 1 0 1.664l-3 2a1 1 0 0 1 -.558.168z" fill="url(#New_Gradient_Swatch_3-4)"/><path d="m19 46a1 1 0 0 1 -.948-1.316l2-6a1 1 0 1 1 1.9.632l-2 6a1 1 0 0 1 -.952.684z" fill="url(#New_Gradient_Swatch_3-5)"/><path d="m12 48h6v2h-6z" fill="url(#New_Gradient_Swatch_3-6)"/><path d="m20 48h2v2h-2z" fill="url(#New_Gradient_Swatch_3-7)"/><path d="m15 52h12v2h-12z" fill="url(#New_Gradient_Swatch_3-7)"/><path d="m33 52h7v2h-7z" fill="url(#New_Gradient_Swatch_3-9)"/><path d="m15 56h2v2h-2z" fill="url(#New_Gradient_Swatch_3-10)"/><path d="m19 56h12v2h-12z" fill="url(#New_Gradient_Swatch_3-11)"/><path d="m33 56h4v2h-4z" fill="url(#New_Gradient_Swatch_3-12)"/><path d="m29 52h2v2h-2z" fill="url(#New_Gradient_Swatch_3-13)"/><path d="m6 31h2v2h-2z" fill="url(#New_Gradient_Swatch_3-14)"/><path d="m10 31h2v2h-2z" fill="url(#New_Gradient_Swatch_3-15)"/><path d="m14 31h2v2h-2z" fill="url(#New_Gradient_Swatch_3-6)"/><path d="m39 12h-18a1 1 0 0 1 -1-1v-4a1 1 0 0 1 1-1h18a1 1 0 0 1 1 1v4a1 1 0 0 1 -1 1zm-17-2h16v-2h-16z" fill="url(#New_Gradient_Swatch_3-13)"/><path d="m56 6h2v2h-2z" fill="url(#New_Gradient_Swatch_3-18)"/><path d="m56 10h2v2h-2z" fill="url(#New_Gradient_Swatch_3-18)"/><path d="m52 6h2v2h-2z" fill="url(#New_Gradient_Swatch_3-20)"/><path d="m52 10h2v2h-2z" fill="url(#New_Gradient_Swatch_3-20)"/><path d="m48 6h2v2h-2z" fill="url(#New_Gradient_Swatch_3-22)"/><path d="m48 10h2v2h-2z" fill="url(#New_Gradient_Swatch_3-22)"/><path d="m44 6h2v2h-2z" fill="url(#New_Gradient_Swatch_3-24)"/><path d="m44 10h2v2h-2z" fill="url(#New_Gradient_Swatch_3-24)"/><path d="m39 27a1 1 0 0 1 -1-1v-2h-16v2a1 1 0 0 1 -2 0v-3a1 1 0 0 1 1-1h18a1 1 0 0 1 1 1v3a1 1 0 0 1 -1 1z" fill="url(#New_Gradient_Swatch_3-13)"/><path d="m56 26h2v2h-2z" fill="url(#New_Gradient_Swatch_3-18)"/><path d="m52 26h2v2h-2z" fill="url(#New_Gradient_Swatch_3-20)"/><path d="m48 26h2v2h-2z" fill="url(#New_Gradient_Swatch_3-22)"/><path d="m44 26h2v2h-2z" fill="url(#New_Gradient_Swatch_3-24)"/><path d="m48 38h2v2h-2z" fill="url(#New_Gradient_Swatch_3-22)"/><path d="m48 42h2v2h-2z" fill="url(#New_Gradient_Swatch_3-22)"/><path d="m61 16a1 1 0 0 0 1-1v-12a1 1 0 0 0 -1-1h-44a1 1 0 0 0 -1 1v12a1 1 0 0 0 1 1h3v2h-3a1 1 0 0 0 -1 1v7a1 1 0 0 0 2 0v-6h42v10h-12a1 1 0 0 0 0 2h4v2h-4a1 1 0 0 0 0 2h12v10h-12a1 1 0 0 0 0 2h4v3a1 1 0 0 0 1 1h4a1 1 0 0 0 1-1v-3h3a1 1 0 0 0 1-1v-12a1 1 0 0 0 -1-1h-3v-2h3a1 1 0 0 0 1-1v-12a1 1 0 0 0 -1-1h-3v-2zm-5 34h-2v-2h2zm0-16h-2v-2h2zm-32-16h-2v-2h2zm28 0h-26v-2h26zm4 0h-2v-2h2zm-38-4v-10h42v10z" fill="url(#New_Gradient_Swatch_3-33)"/><path d="m56 38h2v2h-2z" fill="url(#New_Gradient_Swatch_3-18)"/><path d="m56 42h2v2h-2z" fill="url(#New_Gradient_Swatch_3-18)"/><path d="m52 38h2v2h-2z" fill="url(#New_Gradient_Swatch_3-20)"/><path d="m52 42h2v2h-2z" fill="url(#New_Gradient_Swatch_3-20)"/><path d="m56 22h2v2h-2z" fill="url(#New_Gradient_Swatch_3-18)"/><path d="m52 22h2v2h-2z" fill="url(#New_Gradient_Swatch_3-20)"/><path d="m48 22h2v2h-2z" fill="url(#New_Gradient_Swatch_3-22)"/><path d="m44 22h2v2h-2z" fill="url(#New_Gradient_Swatch_3-24)"/></svg>